
<svg xmlns="http://www.w3.org/2000/svg" version="1.1" xmlns:xlink="http://www.w3.org/1999/xlink" width="512" height="512" x="0" y="0" viewBox="0 0 300 300" style="enable-background:new 0 0 512 512" xml:space="preserve" class=""><g><path fill="#d7d7d7" d="M269.231 55.623a2.237 2.237 0 0 0 2.236-2.236V37.99a2.236 2.236 0 0 0-2.236-2.236H30.769a2.237 2.237 0 0 0-2.236 2.236v15.397a2.236 2.236 0 0 0 2.236 2.236h14.163v188.754H30.769a2.237 2.237 0 0 0-2.236 2.236v15.397a2.236 2.236 0 0 0 2.236 2.236h238.463a2.237 2.237 0 0 0 2.236-2.236v-15.397a2.236 2.236 0 0 0-2.236-2.236h-8.05V55.623zm-2.235 204.151H33.004v-10.926h233.992zM33.004 40.226h233.992v10.926H33.005V40.226zm55.674 204.151V55.623h10.926v188.754zm15.398-188.754h19.409v188.754h-19.409zm23.88 188.754V55.623h10.925v188.754zm15.395-188.754h19.409v188.754h-19.409zm23.88 188.754V55.623h10.926v188.754zm15.398-188.754h19.407v188.754h-19.407zm23.878 188.754V55.623h10.926v188.754zM64.8 55.623h19.407v188.754H64.8zm157.104 188.754V55.623h19.409v188.754zM60.329 55.623v188.754H49.403V55.623zm185.455 188.754V55.623h10.926v188.754z" opacity="1" data-original="#333333" class=""></path></g></svg>