<?xml version="1.0" encoding="UTF-8"?>
<svg id="Layer_2" data-name="Layer 2" xmlns="http://www.w3.org/2000/svg" xmlns:xlink="http://www.w3.org/1999/xlink" viewBox="0 0 164 202.43">
  <defs>
    <style>
      .cls-1 {
        fill: url(#linear-gradient);
      }

      .cls-1, .cls-2, .cls-3, .cls-4, .cls-5, .cls-6, .cls-7, .cls-8, .cls-9, .cls-10, .cls-11, .cls-12, .cls-13, .cls-14, .cls-15, .cls-16, .cls-17, .cls-18, .cls-19, .cls-20 {
        stroke-width: 0px;
      }

      .cls-2 {
        fill: url(#linear-gradient-11);
      }

      .cls-3 {
        fill: url(#linear-gradient-10);
      }

      .cls-4 {
        fill: url(#linear-gradient-4);
      }

      .cls-5 {
        fill: url(#linear-gradient-2);
      }

      .cls-6 {
        fill: url(#linear-gradient-3);
      }

      .cls-7 {
        fill: url(#linear-gradient-8);
      }

      .cls-8 {
        fill: url(#linear-gradient-9);
      }

      .cls-9 {
        fill: url(#linear-gradient-7);
      }

      .cls-10 {
        fill: url(#linear-gradient-5);
      }

      .cls-11 {
        fill: url(#linear-gradient-6);
      }

      .cls-13 {
        fill: #353537;
      }

      .cls-14 {
        fill: #545456;
      }

      .cls-15 {
        fill: #1880d3;
      }

      .cls-16 {
        fill: #cc141c;
      }

      .cls-17 {
        fill: #900f14;
      }

      .cls-18 {
        fill: #f38b04;
      }

      .cls-19 {
        fill: #fff;
      }

      .cls-20 {
        fill: #f15000;
      }
    </style>
    <linearGradient id="linear-gradient" x1="0" y1="174" x2="164" y2="174" gradientUnits="userSpaceOnUse">
      <stop offset="0" stop-color="#f28a00"/>
      <stop offset="1" stop-color="#ff3600"/>
    </linearGradient>
    <linearGradient id="linear-gradient-2" x1="25.57" y1="93.56" x2="159.57" y2="93.56" xlink:href="#linear-gradient"/>
    <linearGradient id="linear-gradient-3" x1="14.43" y1="168.98" x2="14.43" y2="195.2" xlink:href="#linear-gradient"/>
    <linearGradient id="linear-gradient-4" x1="32.31" y1="168.5" x2="32.31" y2="192.63" xlink:href="#linear-gradient"/>
    <linearGradient id="linear-gradient-5" x1="50.29" y1="167.41" x2="50.29" y2="190.76" xlink:href="#linear-gradient"/>
    <linearGradient id="linear-gradient-6" x1="68.29" y1="167.12" x2="68.29" y2="189.4" xlink:href="#linear-gradient"/>
    <linearGradient id="linear-gradient-7" x1="84.51" y1="167.1" x2="84.51" y2="189.14" xlink:href="#linear-gradient"/>
    <linearGradient id="linear-gradient-8" x1="100.22" y1="167.21" x2="100.22" y2="189.58" xlink:href="#linear-gradient"/>
    <linearGradient id="linear-gradient-9" x1="114.39" y1="167.41" x2="114.39" y2="190.88" xlink:href="#linear-gradient"/>
    <linearGradient id="linear-gradient-10" x1="133.03" y1="168.09" x2="133.03" y2="192.8" xlink:href="#linear-gradient"/>
    <linearGradient id="linear-gradient-11" x1="150.91" y1="169.38" x2="150.91" y2="194.64" xlink:href="#linear-gradient"/>
  </defs>
  <g id="Layer_1-2" data-name="Layer 1">
    <path class="cls-1" d="M1.35,173.28l-1.35-.88v-1.18s0-19.44,0-19.44l1.36.9v-7.11h26.23l-.02,8.41,5.95-.13c1.95-.04,3.89-.08,5.84-.11,5.99-.1,11.98-.19,17.97-.25l3.97-.04c3.28-.03,6.56-.05,9.84-.06h1.07v-2.53l1.36.8v-6.1h26.22v7.87s6.46.06,6.46.06c5.26.05,10.53.12,15.79.21l3.97.07c4.67.08,9.33.18,14,.29l3.96.1c5.98.15,11.97.33,17.94.52l2.09.07v16.53c-1.35-.1-4.9-.37-4.9-.37l.02,30.83-2.54-.45c-3.98-.71-8.02-1.37-11.99-1.97l-.9-.13c-5.91-.87-11.91-1.62-17.84-2.24-1.31-.13-2.63-.27-3.94-.39-5.2-.49-10.49-.89-15.72-1.19l-2.17-.12c-3.31-.17-6.66-.31-9.95-.4-2.07-.06-4.15-.1-6.22-.13-1.95-.03-3.91-.04-5.86-.04-2.08,0-4.17.01-6.25.05l-1.38.02c-3.99.07-8.06.2-12.1.39l-.91.04c-5.97.29-12,.71-17.9,1.25-1.32.12-2.63.25-3.95.38-5.95.6-11.95,1.33-17.84,2.18-1.93.28-3.86.57-5.78.87-3.99.63-8.01,1.33-11.97,2.07l-2.56.48v-29.14Z"/>
    <g>
      <path class="cls-5" d="M155.32,4.41c-13.21,14.79-28.2,27.97-45.72,38.93-.58.36-.98.95-1.11,1.63l-.57,3.08c-3.32-.7-6.65-1.45-10.08-2.04h-.01c-3.76-.75-7.79-1.25-11.98-1.53-4.85-4-8.61-6.27-13.57-7.05-.55-.09-1.96-.18-1.96-.18,0,0-.4,1.07-.62,1.54-3.08-1.65-6.28-2.85-9.4-3.42-.61-.11-2.14-.3-2.14-.3,0,0-.42,1.34-.62,1.9-4.28-2.64-9.45-5.25-16.33-7.23-1.37-.4-7.44-1.33-7.44-1.33,0,0,4.24,4.79,5.19,5.58,5.13,4.24,9.94,9.2,14.14,14.44-16.08,4.86-26.5,12.24-26.5,12.24-.34.25-1.03.76-1.03.76,0,0,.03.86.03,1.22v43.24l-.03,2.47c0,.13,0,.26.03.39v47.47c0,.27.03.74.03.74,0,0,.25.41.35.57,10.71,17.07,30.85,29.59,54,29.59s43.29-12.52,54-29.59c.11-.18.33-.57.33-.57,0,0,.05-.49.05-.73v-67.26l.67-.78c.25-.3.94-1.03.94-1.03,0,0-.32-.83-.44-1.25,4.33-3.98,7.83-8.19,10.8-12.23.35-.47,1.03-1.53,1.03-1.53,0,0-.74-.97-1.02-1.36,2.41-4.26,4.36-8.61,5.75-12.77.2-.6.55-1.54.55-1.54,0,0-.95-.79-1.17-1.01,1.51-3.58,2.9-7.2,3.58-10.92.09-.52.25-1.43.25-1.43,0,0-.87-.74-1.2-.98,1.42-3.5,2.71-7.09,3.36-10.96.11-.64.37-2.11.37-2.11,0,0-1.48-.45-2.01-.62,1.02-3.73,2.01-7.51,2.39-11.39.04-.38.1-1.16.1-1.16,0,0-.54-.54-.77-.78.84-2.96,1.58-5.95,2.05-8.65-.04-.99-.06-6.47-.06-6.47,0,0-3.19,3.32-4.19,4.41Z"/>
      <path class="cls-20" d="M90.4,129.17c15.5,10.88,14.94,24.14,11.92,31.13.49-13.22-5.36-22.49-11.92-31.13ZM91.12,121.13c6.44,10.1,34.05,3.22,25.71,37.06.92-29.66-24.11-25.56-25.71-37.06ZM151.08,18.23c-10.07,10.49-31.41,26.05-38.32,29.03.17,11.07-14.54,40.25-26.6,43.32.08.16-11.2,11.94-14.52,13.37,3.35-5.31,9.2-14.35,9.2-14.35,5.06-1.36,8.51-3.52,11.96-5.69-.8-1.27-2.3-2.58-4.05-2.84,1.33-.76,4.5-.41,4.5-.41-1.78-1-7.96-7.33-11.73-6.82.71.91,2.32,2.66,2.85,4.69l-2.7-1.9c.53.52,3.71,7.23,3.61,9.14-2.56-4.67-5.37-8.87-8.52-11.5,1.02-.17,1.83-.04,2.82.15-.72-1.24-2.32-2.25-4.1-3.39-1.99,1.44-3.6,2.89-6.44,3.43,3.3-2.06,10.47-8.64,12.44-10.44-2.39,1-4.39,1.59-4.39,1.59-2.97,2.48-6.01,4.9-9.7,6.62,1.69-1.19,3.3-2.44,4.78-3.8-1.8.42-3.65.94-5.36,1.18,4.81-3.2,10.12-7.31,14.26-11.54-1.15,1.93-2.2,3.87-3.63,5.8,5.45-4.32,7.7-9.25,9.01-12.2-5.85,5.66-8.56,8.26-12.49,11-2.72,1.9-6.04,2.95-10.35,6.24,1.18-1.53,2.52-2.68,3.9-3.72,1.91-2.74,5.71-8.75,1.4-10.87,1.48-.03,2.28.78,2.64,1.96.13-.45.29-1.07.31-1.52-.11-.14-.23-.27-.37-.39-3.42-2.98-6.55,1.79-6.53,3.17,0,0,1.69-1.94,2.97-1.57.63.18,1.81.2,1.33,2.78-.76,4.16-7.08,10.05-7.08,10.05-.03.52-.04.94-.37,1.44-.08-.76,0-1.54-.51-2.37-1.1,4.14-3.94,4.71-3.42,8.95.1.8,1.72.18,1.72.18-.74,0-1.06-.02-1.13-.71.58.29.86.31,1.28.03-1.06-.45-.79-1.02-.67-1.43,0,0-.05.69.62.58.67-.1.47-2.31,1.93-3.54,1.07-.91,1.97-1.19,3.52-.71-.58-.02-1.13.06-1.64.25.17,1.48-.16,2.36-.67,3.38.06-.96.16-1.93-.27-2.85-.81.64-1.54,1.77-1.92,3.46-.02.1,1.06.02,1.53-.17-.3.52-1.75,1.17-1.75,1.17.31.39,2.05.06,3.41.74l-1.22.51c.36.06,1.36.33,1.94.49-.82.37-1.02.97-1.02.97,4.56.7,7.76,1.74,10.59,6.34-1.89-1.62-3.76-3.01-5.58-3.42.43.4.94,2.43.77,3.87-1.76-4.43-4.39-4.74-4.39-4.74,2.39,4.48,3.94,9,3.74,12.87,1.58-1.88,1.97-4.95,2.08-8.13,2.09,5.66,3.27,12.51.15,16.61,0,0,.62-2.78.03-8.28-1.93,3.89-3.64,4.62-3.64,4.62.14-.69.2-2.73-.09-3.66-1.36,2.21-2.21,5.48-2.51,9.12-1.01-.9-.86-5.53.23-7.88-8.17,6.44-6.12,19.67,8.17,28.27-1.22-1.91-1.23-3.77-.8-5.62,7.06,10.55,18.72,11.57,23.92,27.64,5.04,15.57-12.91,31.29-12.91,31.29,2.03-.04,3.99-.17,5.91-.4,1.5-1.91,6.54-8.55,9.37-15.32.43,5.1-3.04,12.01-4.39,14.49,1.73-.38,3.44-.86,5.13-1.44,2.31-2.35,11.22-12.65,9.38-29.76,4.07,12.25.56,22.33-1.07,25.98,1.13-.64,2.26-1.34,3.41-2.1.79-1.51,3.05-6.15,3.44-10.67.76,2.9-.11,6.98-.54,8.65.96-.71,1.93-1.45,2.91-2.24,2.15-2.95,6.37-10.85,3.75-25.13,4.75,7.18,4.21,15.02,3.59,18.65.89-.85,1.8-1.74,2.72-2.66,1.01-14.21-5.86-25.81-11.77-34.13-6.62-6.06-12.59-9.35-19.08-10.88,9.05,5.45,14.35,11.49,16.82,17.49-10.27-8.29-20.44-17.6-33.36-18.2l-1.1,3.24c-3.15-4.77.55-13.59,4.08-15.58,16.77-1.78,29.08-22.47,36.18-47.19,5.77-3.24,23.77-15.24,32.45-32.64Z"/>
      <path class="cls-20" d="M107.01,108.01c-.56.35-1.3.6-2.17.78,1.2.7,3.61,2.23,5.75,4.31-3.71-2.28-6.81-3.55-7.97-4-1.11.1-2.32.14-3.56.17,12.98,5.18,19.05,11.1,19.05,11.1-2.4-4.62-6.18-8.71-11.1-12.36ZM95.25,103.59c-4.18,2.13-6.06,2.07-6.92,2.3,10.6,4.58,18.34-.38,18.34-.38,0,0-6.6.51-11.42-1.91ZM88.39,98.62c1.24,1.33,2.66,2.09,2.66,2.09,0,0-4.31.88-8.21.47,4.41,1.89,9.24,1.5,12.93-.16-3.95-.75-4.5-.99-7.38-2.4ZM117.4,98.29s-7.13,1.09-12.44.17c-3.66,2.94-5.51,3.26-6.31,3.66,11.32,2.32,18.75-3.83,18.75-3.83ZM95.38,95.6c1.4,1.28,3.58,1.86,3.58,1.86,0,0-3.51,1.17-7.4,1.7,4.74.91,9.84.14,13.02-2.74-3.74.37-5.95-.06-9.2-.83ZM100.54,90.81c1.44,1.31,3.59,1.91,3.59,1.91,0,0-2.47,1.01-6.7,1.98,5.26.55,11.14-.51,14.39-3.61-4.06.65-7.64.24-11.27-.28ZM125.83,89.54s-6.93,3.32-13.36,2.76c-2.6,2.47-5.69,3.34-6.49,3.74,11.46,2.9,19.85-6.5,19.85-6.5ZM118.65,83.4c-4.27,1.35-8.53,1.43-12.51,1.35,1.77,1.32,4.5,1.69,4.5,1.69,0,0-3.01,1.87-7.42,3.63,5.76-.12,12.43-2.56,15.43-6.67ZM134.33,79.52s-7.47,4.59-14.84,5.47c-1.97,3-4.37,4.59-5.05,5.16,12.16.56,19.88-10.63,19.88-10.63ZM97.96,73.02c-1.67-.02-3.35.23-4.43.64,4.29.3,4.69.94,4.69.94,0,0-2.2.78-2.79,2.88,1.15-.95,2.28-1.5,3.37-1.86.34-.59,1.07-1.85,1.36-2.42-.7-.12-1.45-.18-2.2-.19ZM125.75,72.54c-2.39,1.41-8.59,4.87-13.39,5.22,2.4.78,4.79.3,4.79.3,0,0-2.76,3.15-7.93,5.38,9.8-1.29,13.53-6.79,16.52-10.9ZM141.73,66.07s-5.72,5.57-14.06,7.33c-3.07,5.88-5.53,7.66-6.43,8.7,12.09-.39,20.5-16.03,20.5-16.03ZM128.73,63.41c-2.83,1.62-9.93,5.28-13.39,6.09,2.3.36,5.73-.39,5.73-.39,0,0-2.57,3.16-7.18,6.31,7.43-2.66,12.25-7.64,14.84-12.01ZM131.38,54.55c-2.83,1.62-9.21,5.5-12.66,6.31,2.07.72,4.31-.08,4.31-.08,0,0-1.16,2.45-5.33,5.85,6.63-2.7,11.08-7.71,13.68-12.09ZM145.31,53.26s-6.54,7.08-14.93,10.98c-.88,2.78-2.03,5.21-2.78,6.37,11.76-2.43,17.71-17.35,17.71-17.35ZM132.49,46.49c-2.57,1.69-7.6,5.47-10.79,6.41,1.97.6,3.78-.33,3.78-.33,0,0-1.25,2.22-4.99,5.68,6.07-2.9,9.77-7.43,11.99-11.76ZM148.66,39.69s-7.37,9.55-15.45,14.08c-.22,2.57-.77,3.5-2.16,6.65,15.31-6.9,17.61-20.73,17.61-20.73ZM150.71,25.14c-4.27,6.03-9.07,11.54-14.79,16.16-.22,2.57-.95,5.4-2.34,8.55,13.19-9.28,15.69-19.94,17.13-24.71Z"/>
      <path class="cls-16" d="M95.26,103.59c-4.19,2.13-6.06,2.07-6.92,2.3,2.01.87,3.91,1.39,5.68,1.67,1.79-.84,3.51-1.72,5.17-2.63-1.33-.29-2.69-.72-3.93-1.34ZM104.96,98.47c-3.66,2.94-5.51,3.26-6.31,3.66,1.57.32,3.06.47,4.47.51,1.98-1.23,3.85-2.5,5.63-3.83-1.29-.04-2.59-.14-3.8-.35ZM116.44,92.21c-1.3.15-2.65.2-3.97.09-2.6,2.47-5.69,3.34-6.49,3.74,1.99.5,3.89.64,5.67.51,1.69-1.4,3.29-2.84,4.79-4.33ZM123.31,84.24c-1.25.33-2.53.6-3.82.76-1.97,3-4.37,4.59-5.05,5.16,1.48.07,2.9-.04,4.24-.28,1.66-1.82,3.2-3.7,4.62-5.64ZM130.08,72.76c-.78.24-1.58.46-2.41.63-3.07,5.88-5.53,7.66-6.43,8.7,1.41-.04,2.76-.3,4.06-.71,1.81-2.77,3.4-5.65,4.79-8.62ZM134.05,62.28c-1.17.7-2.4,1.37-3.67,1.96-.88,2.78-2.03,5.21-2.78,6.37,1.43-.29,2.77-.77,4.02-1.39.91-2.27,1.72-4.58,2.43-6.94ZM136.55,51.61c-1.09.79-2.2,1.53-3.33,2.16-.22,2.57-.77,3.5-2.16,6.65,1.49-.67,2.85-1.41,4.1-2.19.54-2.18,1-4.39,1.39-6.63ZM137.99,39.55c-.68.6-1.37,1.18-2.07,1.75-.22,2.57-.95,5.4-2.34,8.55,1.33-.94,2.55-1.89,3.68-2.85.32-2.45.56-4.94.74-7.45Z"/>
      <path class="cls-16" d="M88.39,98.62c1.24,1.33,2.66,2.09,2.66,2.09,0,0-4.31.88-8.21.47,1.01.43,2.04.74,3.07.95,2.3-.49,4.51-1.08,6.63-1.81-1.42-.38-2.32-.8-4.15-1.7ZM95.38,95.6c1.4,1.28,3.59,1.86,3.59,1.86,0,0-3.51,1.17-7.4,1.7,1.04.2,2.09.32,3.14.35,2.1-.84,4.1-1.83,6.02-3-1.78-.12-3.37-.45-5.34-.92ZM100.54,90.81c1.45,1.31,3.59,1.91,3.59,1.91,0,0-2.47,1.01-6.71,1.98,2.02.21,4.13.19,6.15-.1,1.29-.96,2.54-2.01,3.76-3.18-2.33-.01-4.55-.29-6.79-.61ZM113.14,84.52c-2.39.26-4.74.27-7.01.22,1.76,1.32,4.5,1.69,4.5,1.69,0,0-3.01,1.87-7.42,3.63,2.08-.04,4.28-.39,6.38-1.01,1.23-1.38,2.41-2.89,3.55-4.53ZM116.86,78.37c-.8.82-3.39,3.24-7.63,5.07,2.1-.28,3.91-.75,5.5-1.35.73-1.18,1.44-2.42,2.13-3.72ZM117.86,76.41c-1.85.69-3.77,1.23-5.5,1.35,2.06.67,4.11.41,4.65.33.29-.55.57-1.11.85-1.68ZM121,69.19c-.32.38-2.81,3.29-7.12,6.23,2.11-.75,4-1.69,5.7-2.75.48-1.12.96-2.28,1.42-3.48ZM121.84,66.96c-2.42,1.14-4.87,2.16-6.5,2.54,2.26.35,5.58-.36,5.69-.38.27-.7.54-1.43.81-2.16ZM124.62,58.36c-2.17,1.13-4.33,2.13-5.9,2.5,2.07.72,4.31-.08,4.31-.08,0,0-1.16,2.45-5.33,5.85,1.93-.78,3.67-1.77,5.24-2.87.57-1.73,1.13-3.53,1.68-5.41ZM126.74,50.34c-1.79,1.13-3.6,2.13-5.04,2.55,1.97.6,3.78-.33,3.78-.33,0,0-1.25,2.22-4.99,5.68,1.9-.91,3.57-1.97,5.03-3.15.41-1.54.82-3.12,1.21-4.76Z"/>
      <path class="cls-20" d="M83.34,50.47c-4.96,4.99-8.73,7.79-9.91,8.16-.14,1.11-.35,2.04-.35,2.04,0,0,5.34-3.23,7.25-5.86l-.4,1.99c1.32-1.07,2.72-3.84,3.41-6.33Z"/>
      <path class="cls-20" d="M72.33,55.58c-.08.58-.21,1.17-.59,1.86.13,1.65-.27,3.64-.78,5.18.17-.14.34-.27.51-.41,0,0,1.94-4,.86-6.63Z"/>
      <path class="cls-16" d="M63.28,55.78c-17.47,2.28-29.27,10.68-29.27,10.68v71.19c.96,4.14,2.21,8.25,6.05,12.2,1.48-3.8,2.75-13.5,15.68-13.92-5.17,2.55-10.15,10.4,2.22,25.06.02-3.18-.29-13.25,6.38-14.13,0,0-2.73,8.07,6.59,10.86,8.88,2.66,18.13-1.73,20.5-4,2.37-2.27,2.16-7.98-2.58-13.77-4.66-5.7-13.74-14.08-13.74-14.08.45,2.57,1.37,3.47,2.28,5.18-16.67-7.3-28.86-27.6-11.47-39.4-.47-2.43-1.09-4.8-2.24-6.96-.73-1.1-1.55-1.98-2.37-2.83,0,0-1.55.83-2.53.85-2.26,2.61-1.85,4.92-1.42,6.34-6.47-2.97-3.38-9.36-1.18-13.22.2-3.34,2.46-6.1,3.69-9.15.14-.44.12-1.21-.08-2.08,1.26.14,2.03.9,2.87,1.55.95-.82,5.76-6.55,4.36-6.79-1.37-.23-3.86,3.43-3.86,3.43-.68-.7-1.35-4.75.11-7.01Z"/>
      <path class="cls-20" d="M89.87,57.88c-.92,0-1.86.02-2.79.06,5.92.9,6.55,2.36,6.55,2.36,0,0-1.81.58-3.1,2.4,4.29-1.67,7.42-1.91,10.57-2.17-3.4-2.02-7.23-2.63-11.23-2.65Z"/>
      <path class="cls-20" d="M101.9,62.84c-.8,0-1.61.07-2.46.18,3.36.56,4.06,1.82,4.06,1.82,0,0-1.42,1.15-1.4,2.05.53-.48,1.19-1.03,2.32-1.25.42-.55,1.01-1.79,1.37-2.32-1.29-.35-2.56-.49-3.88-.48Z"/>
      <path class="cls-18" d="M88.39,98.62c1.24,1.33,2.66,2.09,2.66,2.09,1.66.4,3.15.21,4.72.31-3.95-.75-4.5-.99-7.38-2.4ZM95.38,95.6c1.4,1.28,3.58,1.86,3.58,1.86h0c1.15-.06,3.59.21,5.62-1.03-3.74.37-5.95-.06-9.2-.83ZM100.54,90.81c1.44,1.31,3.59,1.91,3.59,1.91h0c2.44-.03,4.68-.29,7.68-1.63-4.07.65-7.64.24-11.27-.28ZM118.65,83.4c-4.27,1.35-8.53,1.43-12.51,1.35,1.76,1.32,4.5,1.69,4.5,1.69,2.28-.51,6.06-1.36,8.01-3.04ZM125.75,72.54c-2.39,1.41-8.59,4.87-13.39,5.22,2.4.77,4.78.3,4.79.3h0s0,0,0,0c2.66-1.28,5.58-2.48,8.6-5.52ZM128.73,63.41c-2.83,1.62-9.94,5.28-13.39,6.09,2.3.36,5.72-.39,5.73-.39h0c2.19-1.43,5.11-3.06,7.66-5.71ZM131.38,54.55c-2.83,1.62-9.21,5.5-12.66,6.31,1.08.38,2.21.34,3.05.21.7-.16,1.27-.29,1.27-.29,3.79-1.91,6.87-4.31,8.35-6.23ZM132.49,46.49c-2.57,1.69-7.6,5.47-10.79,6.41,1.96.6,3.78-.33,3.78-.33,3.73-2.2,5.43-4.15,7.01-6.08Z"/>
      <path class="cls-20" d="M78.64,68.35c-.4.32-.99,1.13-.99,1.13,2.16.56,4.27,1.76,4.27,1.76-1.09,0-1.5,0-2.42.22l.68.8c1.66-.14,3.33,0,5,.24-1.29-1.51-5.25-3.86-6.52-4.15Z"/>
      <path class="cls-14" d="M56.28,79.55s-.02.57.13.85c.15.29-.05.53-.36.3-.31-.24.23-1.15.23-1.15ZM57.52,77.05c-1.84,2.07-3.03,4.7-2.02,8.02.75-2.94,2.71-5.38,6.47-7.49-1.39-.25-2.84.1-4.57.9.28-.54.12-1.43.12-1.43Z"/>
      <path class="cls-14" d="M63.02,78.33l-1.69.08c-1.45.84-2.32,1.65-3.23,2.63,2.44,0,4.92-2.71,4.92-2.71Z"/>
      <path class="cls-20" d="M47.57,140.44c-4.38,5.91-6.8,14.17-4.14,25.18,2.36,1.47,4.57,2.77,6.64,3.92-1.07-1.9-3.11-6.65-3.71-16.13,7.52,15.78,15.7,21.44,17.82,22.7,8.36,2.94,12.45,2.26,14.77,2.36l1.22-1.02c-19.89-4.73-33.5-22.58-32.6-37.02Z"/>
      <path class="cls-20" d="M34.02,144.1v12.5l3.44,4.01c-1.13-3.12-1.87-6.38-2.04-9.85,1.34,3.67,2.69,5.99,3.92,7.61,0-1.51.17-3.82.59-6.16-3.46-3.42-4.39-5.61-5.92-8.1Z"/>
      <path class="cls-20" d="M62.36,149.31c-8.39,10.84,3.18,24.42,20.93,25.58,1.07-1.12,2-2.25,2.84-3.39-2.06-.14-15.47-1.27-20.93-8.46,15.79,6.26,24.08,1.31,25.55.27.74-1.65,1.4-3.31,2.07-4.97-22.31,10.24-33.08-2.1-30.47-9.03Z"/>
      <path class="cls-20" d="M58.47,173.81c1.5.68,2.91,1.26,4.21,1.76l-4.21-1.76Z"/>
      <path class="cls-18" d="M95.26,103.59c-.93.47-1.74.83-2.46,1.12,9.01,3.17,13.87.79,13.87.79,0,0-6.6.51-11.42-1.91ZM117.4,98.29s-7.13,1.09-12.44.17c-.97.78-1.81,1.37-2.54,1.83,10.1,1.57,14.98-2.01,14.98-2.01ZM125.83,89.54s-6.93,3.32-13.36,2.76c-.87.82-1.79,1.47-2.66,1.97,10.3,1.73,16.01-4.73,16.02-4.74ZM134.33,79.52s-7.47,4.59-14.83,5.47c-.74,1.12-1.53,2.04-2.27,2.79,4.54,0,12.28-1.72,17.11-8.26ZM141.73,66.07s-5.72,5.57-14.06,7.33c-1.04,2-2.01,3.51-2.88,4.7,5.62-2.2,12.09-5.46,16.94-12.02ZM145.31,53.26s-6.54,7.08-14.93,10.98c-.3.94-.63,1.84-.96,2.67,5.58-2.34,11.47-6.75,15.9-13.65ZM148.66,39.69s-7.37,9.55-15.45,14.08c-.12,1.38-.34,2.29-.73,3.33,6.77-4.78,12.4-8.4,16.18-17.41ZM150.7,25.14c-4.27,6.03-9.07,11.54-14.79,16.16-.1,1.12-.29,2.29-.59,3.52,6.59-5.66,11.46-11.89,15.38-19.67Z"/>
      <path class="cls-16" d="M69.28,85.95l.78-2.31,4.04,1.87c-1.88-1.63-3.76-3.01-5.58-3.42.43.4.94,2.43.77,3.87ZM64.89,81.21c2.39,4.48,3.94,9,3.74,12.87.8-2.13,1.15-4.71.66-8.13-1.76-4.43-4.39-4.74-4.39-4.74ZM88.75,81.07s.18.04.45.09c-.06-.02-.13-.03-.2-.05-.08-.02-.17-.03-.25-.05ZM75.85,80.79c2.26,2.67,3.48,4.38,4.03,8.01l-8.24,15.15c3.35-5.31,9.2-14.35,9.2-14.35,5.06-1.36,8.51-3.52,11.96-5.69-.2-.32-.45-.65-.74-.96-1.32,1.1-3.69,2.81-6.96,4.2-1.28-1.06-2.46-2.1-4.26-3.21.55.82.99,1.58,1.14,2.17-1.95-1.8-3.49-3.73-6.13-5.32ZM81.88,73.81h0c-.12,0-.24.01-.36.03.71.91,2.32,2.66,2.85,4.69l-2.7-1.9s.08.09.13.17c.1.16.25.4.41.71.08.15.17.32.26.51.09.18.19.38.29.59.1.21.2.42.31.65h0c.1.23.21.46.32.7.11.24.21.48.32.73.06.13.11.26.16.39.05.12.1.24.15.36.1.25.2.5.3.75h0c.1.25.19.49.27.73.03.09.06.17.09.26.05.15.1.3.15.44.06.18.11.35.16.52.01.04.03.09.04.13h0s0,0,0,0c.08.29.14.55.19.79,0,.02,0,.04.01.06,0,0,0,0,0,0,.01.08.03.16.03.24.02.15.02.29.02.41.35-.78.56-4-.75-5.98,1.71,1.13,2.72,2.55,2.72,2.55,0,0-.04-1.59-1.67-4.56,1.68.55,3.36,3.05,3.18,3.28,1.33-.76,4.5-.41,4.5-.41-.05-.03-.11-.07-.17-.1-.04-.03-.08-.06-.12-.08-.03-.02-.05-.03-.08-.05-.06-.04-.14-.1-.21-.15-.09-.06-.17-.12-.27-.2-.08-.06-.17-.13-.25-.2-.1-.08-.2-.16-.31-.24-.09-.07-.19-.15-.28-.23-.1-.08-.19-.15-.29-.23-.11-.09-.24-.2-.36-.29-.35-.28-.71-.58-1.1-.89-.1-.08-.21-.17-.32-.25-.15-.12-.31-.24-.46-.36-.11-.08-.22-.17-.33-.25-.15-.12-.31-.23-.46-.35-.13-.1-.26-.19-.39-.28-.15-.11-.3-.22-.46-.33-.22-.15-.44-.3-.66-.45-.06-.04-.12-.08-.18-.12-.07-.05-.14-.09-.22-.14-.07-.04-.14-.09-.21-.13-.07-.04-.14-.08-.21-.13-.07-.04-.15-.09-.22-.13-.07-.04-.14-.08-.21-.12-.08-.04-.15-.08-.22-.12-.06-.03-.13-.07-.2-.1-.08-.04-.16-.08-.24-.12-.06-.03-.12-.06-.18-.09-.08-.04-.16-.08-.25-.11-.06-.02-.11-.05-.16-.07-.08-.04-.17-.07-.25-.1-.05-.02-.11-.04-.16-.06-.08-.03-.17-.06-.25-.08-.05-.02-.1-.03-.15-.05-.09-.03-.17-.05-.25-.07-.05-.01-.1-.03-.15-.04-.07-.02-.14-.03-.21-.04-.06-.01-.12-.02-.18-.03-.07-.01-.14-.02-.21-.03-.05,0-.11-.01-.16-.02-.12,0-.25-.01-.37-.01ZM81.92,71.23c-1.09,0-1.5,0-2.42.22l.68.8c1.66-.14,3.33,0,5,.24l-3.25-1.26ZM64.24,71.13c-.15,0-.3,0-.44.04-.55.1-.84.03-.83.21.01.18.1.31.1.31l-.02,1.84c-.23.61-.35,1.21-.92,1.76l-1.9.8-.12.67s.56.67.93.55c.36-.12,2.77-.11,2.77-.11-.24-.43-.79-.69-2.12-.83,1.08-.06,2.02-.25,2.45-.85-.4.03-.78.07-1.63.05.77-.76,1.76-1.77,1.52-3.87,0,0,.58-.33,1.1-.49,0,0-.44-.09-.88-.09ZM75.48,71.04c-1.99,1.44-3.6,2.89-6.44,3.43,3.2-.28,7.83,1.33,7.83,1.33,0,0-1.13-1.81-2.18-2.35,1.79-.35,3.61.08,4.89.98-.18-.31-.41-.61-.69-.89-.07-.07-.14-.14-.22-.21-.08-.07-.15-.14-.23-.21-.32-.28-.68-.55-1.07-.83-.08-.06-.16-.11-.24-.17-.51-.35-1.07-.71-1.65-1.08ZM63,67.3c-.13,0-1.01.67-1.01.67l-.17,2.26c.94-.77,1.23-1.7,1.2-2.92,0,0,0,0-.02,0ZM92.74,65.67c-.26,0-.54,0-.82,0-.29,0-.59.02-.9.03.27.05.53.1.77.16.24.05.47.11.69.16,3.01.78,3.36,1.7,3.36,1.7,0,0-.25.2-.63.54-.02.01-.03.03-.05.04-.12.11-.24.22-.38.35-.05.04-.1.1-.14.14-.28.27-.58.57-.89.92h0c-.16.18-.32.36-.48.55-.02.03-.04.06-.07.08-.07.08-.14.17-.2.26-.05.06-.09.12-.14.18-.05.06-.1.13-.14.2,1.77-.97,4.89-2.45,8.04-2.71-.36-.21-.69-.4-1.01-.58-.32-.18-.63-.35-.92-.51-.15-.08-.3-.16-.44-.23-.15-.07-.29-.14-.44-.21-.15-.07-.29-.13-.44-.19s-.29-.12-.44-.18c-.15-.06-.3-.11-.45-.16-.15-.05-.31-.1-.47-.14-.16-.04-.32-.08-.49-.12-.17-.04-.34-.07-.51-.1-.17-.03-.35-.06-.54-.08h0c-.19-.02-.38-.04-.58-.06h0c-.2-.02-.4-.03-.62-.04h0c-.21-.01-.43-.02-.66-.02h0Z"/>
      <path class="cls-18" d="M71.64,103.94c5.42-2.43,10.32-7.74,15.19-12.58,14.17-3.24,23.01-21.59,28.12-42.9,9.45-3.85,23.96-15.93,28.66-21.06,2.04-3.14,7.47-9.17,7.47-9.17l-4.62,3.48-28.88,21.59-5.98,3.72-5.11,17.25-7.95,14.84-8.42,8.35-5.58,2.66-12.89,13.82Z"/>
      <path class="cls-16" d="M99.67,153.08c-.17,3.38-.18,6.99-1.14,9.26.43,5.1-3.04,12.01-4.39,14.49,1.73-.38,3.44-.86,5.13-1.44,1.36-4.76,2.43-10.65.41-22.31ZM62.36,149.31c-8.39,10.84,3.18,24.42,20.93,25.58,1.06-1.12,2-2.25,2.84-3.39-2.06-.14-15.47-1.27-20.93-8.46-6.32-5.83-2.84-13.73-2.84-13.73ZM108.64,145.63c4.07,12.25.56,22.33-1.06,25.98,1.13-.64,2.26-1.34,3.4-2.1.79-1.51,3.05-6.15,3.44-10.67.76,2.9-.11,6.98-.54,8.65.73-.54,1.47-1.1,2.22-1.69.33-3.59.19-6.45-2.01-11.44-.48,3.14-1.18,6.42-2.56,8.67.72-4.32,1.03-9.02-2.9-17.4ZM34.02,144.1v12.5l3.44,4.01c-1.13-3.12-1.87-6.38-2.04-9.85l-1.4-6.65ZM102.54,143.76c2.43,6.49,1.51,12.54-.22,16.54.22,2.73-.16,4.9-.28,7.09,2.42-9.49,4.34-16.14.5-23.63ZM47.57,140.44c-4.38,5.91-6.8,14.17-4.14,25.18,2.36,1.47,4.57,2.77,6.64,3.92-1.07-1.9-3.11-6.65-3.71-16.13-.66-6.03,1.21-12.97,1.21-12.97ZM120.55,140.12c.44,8.54-.82,15.89-4.06,25.38.1-.08.21-.17.31-.25,2.15-2.95,6.37-10.85,3.75-25.13ZM120.55,140.12c4.76,7.18,4.21,15.02,3.59,18.65.45-.43.9-.86,1.35-1.3.72-6.51-2.47-14.67-4.94-17.35ZM93.65,125.8c2.16,3.47,5.65,8.04,10.32,10.69,8.25,4.68,8.76,16.07,8.76,16.07.96-6.9-.57-8.72-3.25-15.04,4.02,4.86,7.32,14.69,7.35,20.67.77-24.72-16.49-25.99-23.19-32.39ZM91.12,121.13c0,.17.04.33.09.5-.03-.16-.06-.33-.09-.5ZM96.01,111.11c9.05,5.45,14.35,11.49,16.82,17.49,2.85,3.02,5.99,6,7.51,9.78.18-3.16-1.47-5.66-2.07-7.03,7.01,9.72,8.48,17.74,8.68,21.83-.04-12.88-6.37-23.46-11.87-31.2-6.62-6.06-12.59-9.35-19.08-10.87ZM79.47,110.4l-1.1,3.24c2.13,2.81,5.28,3.4,5.28,3.4,0,0-1.86-1.77-2.35-4.03,9.17,2.11,15.75,5.28,22.83,11.16l-5.76-6.75c-5.8-3.85-11.95-6.69-18.9-7.01ZM102.62,109.11c-1.11.1-2.32.14-3.56.17,12.98,5.18,19.05,11.1,19.05,11.1-1.74-2.53-3.94-4.76-7.52-7.26-3.71-2.28-6.81-3.55-7.97-4Z"/>
      <path class="cls-18" d="M92.75,158.37c-10.03,4.59-17.72,4.61-22.91,2.61,6.87,4.12,13.47,2.73,22.06-.38.29-.72.58-1.43.87-2.15,0-.03-.02-.05-.02-.08ZM49.92,152.71c2.45,10.2,11.57,19.91,24.78,25.72,1.89.11,3.24,0,4.26.05l1.22-1.02c-14.46-3.43-25.59-13.8-30.25-24.75ZM35.78,147.06c.5,2.2,1.88,5.48,3.65,9.23.09-1.23.25-2.65.51-4.09-2.07-2.04-3.23-3.65-4.16-5.14ZM94.28,142.1c.69,1.41,1.32,2.95,1.88,4.68,5.04,15.57-12.91,31.29-12.91,31.29,2.03-.04,3.99-.17,5.91-.4,3.79-7.7,13.61-22.47,5.12-35.57ZM107.01,108.01c-.23.14-.49.27-.77.38,2.46,1.72,4.97,3.54,7.67,5.89-1.95-2.22-4.25-4.31-6.9-6.27Z"/>
      <path class="cls-16" d="M93.62,60.3s-1.81.58-3.1,2.4c.27-.1.53-.2.79-.3,3.89-1.4,6.83-1.62,9.78-1.87l-7.48-.23ZM72.33,55.58c-.08.58-.21,1.17-.59,1.86.13,1.65-.27,3.64-.78,5.18.17-.14.34-.27.51-.41,0,0,1.94-4,.86-6.63ZM69.82,54.17c-.31,0-.62.04-.92.14,1.48-.03,2.28.78,2.64,1.96.13-.45.29-1.07.31-1.52h0c-.66-.34-1.35-.58-2.03-.58Z"/>
      <path class="cls-16" d="M98.06,74.6c-.96.05-4.17,1.63-3.12,3.46,1.12,1.95,3.9-1.51,3.9-1.51l.59-1.51-1.21-.44s-.1-.01-.16-.01ZM105.05,64.6l-1.56.24s-1.42,1.15-1.4,2.05c.53-.48,1.19-1.03,2.32-1.25.19-.25.41-.64.64-1.04Z"/>
      <path class="cls-20" d="M92.74,65.67c-.53,0-1.1,0-1.72.03,4.37.82,4.82,2.02,4.82,2.02l4.92.57c-2.85-1.64-4.34-2.58-8.02-2.63Z"/>
      <path class="cls-18" d="M97.96,73.02c-1.68-.02-3.35.23-4.43.64.25.02.49.04.72.06.08,0,.16.02.24.02.01,0,.02,0,.03,0,.12.01.23.02.34.03h.01c.13.02.26.03.38.04.04,0,.09,0,.13.02h0c.15.02.3.04.44.06,1.07-.15,2.38-.12,3.91.08.16-.3.32-.57.42-.77-.7-.12-1.45-.18-2.2-.19ZM92.74,65.67c-.53,0-1.1,0-1.72.03,1.86.35,3.01.77,3.72,1.13.68-.02,1.43-.01,2.08.06,1.65.19,3.94,1.39,3.94,1.39-2.85-1.64-4.34-2.58-8.02-2.63ZM101.9,62.84c-.8,0-1.61.07-2.46.18.23.04.44.08.65.13.05.01.09.02.14.03.16.04.31.07.45.11.04,0,.07.02.1.03.15.04.3.09.43.13.02,0,.04.01.06.02.15.05.29.1.43.16.81-.29,2.06-.32,3.9,0,0,0,0,0,0,0,.06-.11.13-.21.18-.3-1.29-.35-2.56-.49-3.88-.48h0ZM89.87,57.88c-.92,0-1.85.02-2.79.06.33.05.64.1.93.16,0,0,0,0,.01,0,.06.01.11.02.17.03.27.05.52.1.76.15,0,0,0,0,0,0,.07.02.14.03.21.05h0c.05.01.1.02.15.04.04,0,.09.02.13.03.25.06.48.12.7.17.03,0,.07.02.1.03,0,0,0,0,0,0,.25.07.49.14.7.21h0s0,0,0,0c2.33.03,5.44.3,7.97.65,0,0,0,0,0,0,0,0,0,0,0,0,0,0-.01,0-.02,0-.24-.1-.49-.19-.74-.28-.02,0-.04-.02-.06-.02-.26-.09-.52-.18-.78-.26-.17-.05-.35-.1-.52-.15-.01,0-.02,0-.03,0,0,0-.02,0-.03,0h0c-.17-.05-.33-.09-.5-.13,0,0,0,0,0,0-.02,0-.04,0-.05-.01-.25-.06-.5-.12-.76-.17,0,0,0,0,0,0s0,0,0,0c-.25-.05-.5-.1-.75-.14,0,0,0,0,0,0-.06,0-.12-.02-.18-.03h0c-.13-.02-.26-.04-.39-.06-.03,0-.06,0-.08-.01-.06,0-.12-.02-.18-.02,0,0-.01,0-.02,0-.12-.02-.24-.03-.36-.04h0c-.1-.01-.19-.02-.29-.03,0,0-.01,0-.02,0-.14-.02-.28-.03-.42-.04-.17-.02-.35-.03-.52-.04-.09,0-.17-.01-.26-.02h0c-.13,0-.26-.02-.4-.02h0c-.09,0-.19,0-.28-.01h-.01c-.09,0-.18,0-.28-.01h0c-.35-.01-.7-.02-1.05-.02Z"/>
      <path class="cls-15" d="M62.54,72c-.82.64-1.54,1.77-1.93,3.46-.01.07.43.06.88-.01.79-.49,1.04-1.25,1.36-2.06-.02-.47-.1-.93-.32-1.38Z"/>
      <path class="cls-13" d="M62.16,78.1l-.87.04s-2.31,1.63-2.71,2.13c-.4.5-.92,1.4-.92,1.4l2.15-.66c0-.05-.29-.56.01-.99,3.46-3.12,1.89.95,3.77-1.88-.03,0-1.02,0-1.5,0,.01,0,.07-.05.07-.05ZM61.82,77.13c-.41-.04-3.18.46-3.26.5-.08.04-1.15.85-1.15.85,0,0,2.56-.69,3.02-.57.46.12.42.4.42.4l1.71-.87s-.33-.27-.74-.31Z"/>
      <path class="cls-18" d="M61.04,67.48s-.06,0-.08,0c-.25.07-1.67,2.94-2.42,3.94-.76,1.01-1.62,4.26-1.57,4.53.05.27.76,1.42.93,1.42s2.41-.13,2.41-.13l-.82-.58s-.75.03-.78-.04c-.03-.07-.24-.34-.24-.34-.89-3.31,3.2-4.29,2.84-8.42,0,0-.07-.35-.25-.39ZM80.48,67.18c-.05,0-.09,0-.1,0-.27.06-1.16.05-1.73,1.16,1.96,1.96,5.31,3.24,6.52,4.15,0,0,1.8-4.22,1.24-4.51-.53-.28-5.13-.79-5.92-.8ZM73.61,66.36c-.24-.06-6.81,3.25-6.81,3.25l-1.11,1.17c3.16-.49,4.82-1.29,6.47-2.34,0,0,1.68-2.02,1.45-2.07ZM81.48,64.03s-5.74,1.03-5.98,1.09c-.24.06-.65,1.18-1.18,1.54-.44.3-4.77,4.12-6.93,5.58,3.99-1.1,6.77-3.13,9.47-5.35,1.61-.86,3.31-1.56,4.62-2.86ZM66.83,52.2c-.9-.01-1.62.24-1.8,1.02-.57,2.47-.78,3.48-.72,3.91.06.44-.21,1.46.72,1.23.93-.23,1.43-1.52,1.43-1.52.34-2.49,1.89-3.5,5.24-3.29,0,0-2.88-1.33-4.87-1.36ZM85.46,51.53c-.15,0-.28.02-.39.06-.41.18-2.72,3.9-6.91,7.03-4.2,3.13-7.8,5.67-7.8,5.67l-6.76,4.62s8.54-4.68,11.14-5.86c2.6-1.18,6.33-4.98,6.33-4.98,1.54-1.36,4.43-3.94,5.38-6.4,0,0-.54-.15-.98-.14ZM80.61,49.91c-.11,0-.2,0-.26.03-.47.18-6.56,7.09-6.56,7.09l-.7,3.64c3.1-2.35,7.25-5.86,10.26-10.2,0,0-1.93-.54-2.73-.56Z"/>
      <path class="cls-18" d="M64.87,96.48c-8.17,6.44-6.11,19.67,8.17,28.27-1.22-1.91-1.23-3.77-.8-5.62-3.12-2.29-5.38-4.89-6.82-8.66,0,0-.42,4.28,3.05,8.96-5.04-4.5-9.33-14.84-3.59-22.96ZM70.88,94.29c-1.93,3.89-3.64,4.62-3.64,4.62.14-.69.2-2.73-.09-3.66-1.36,2.21-2.21,5.48-2.51,9.12.56-2.23,1.06-4.44,2.19-6.84-.04,2.2-.02,3.26-.22,4.29,1.84-1.27,2.87-2.56,3.47-4.17.16,1.34.49,2.43.77,4.91,0,0,.62-2.78.03-8.28Z"/>
      <path class="cls-17" d="M94.28,142.1c.54,1.1,1.05,2.29,1.51,3.59,0-1.53-.29-2.9-1.51-3.59ZM55.75,135.93c-7.17.3-11.22-.16-17.17,8.23-2.52-1.76-3.14-3.51-4.56-6.5.96,4.14,2.21,8.25,6.05,12.2,1.48-3.8,2.75-13.5,15.68-13.92ZM55.75,135.93c-5.17,2.55-10.15,10.4,2.22,25.06.02-3.18-.29-13.25,6.38-14.13-7.46,1-8.42,8.27-8.42,8.27-2.88-3.9-5.87-13.3-.17-19.2ZM60.46,116.29c4.91,11.15,12.34,18.68,23.04,24.91,0,0-1.78-3.11-2.99-7.09,5.35,5.35,10.33,12.81,7.84,17.79-2.58,5.16-24.39,8.34-24.01-5.04-.01.03-.02.06-.03.09-.27.9-2.12,8.15,6.62,10.77,8.88,2.66,18.13-1.73,20.5-4,2.37-2.27,2.16-7.98-2.58-13.77-4.66-5.7-13.73-14.07-13.73-14.07.45,2.57,1.37,3.47,2.28,5.18-7.11-3.11-13.41-8.59-16.94-14.77Z"/>
      <path class="cls-12" d="M62.36,149.31c-2.61,6.93,8.16,19.27,30.47,9.03-.67,1.66-1.34,3.32-2.07,4.97-1.48,1.03-9.76,5.99-25.55-.27,5.46,7.18,18.87,8.32,20.93,8.46-.84,1.14-1.78,2.27-2.84,3.39-17.75-1.17-29.32-14.74-20.93-25.58ZM34.02,144.1c1.53,2.48,2.46,4.68,5.92,8.1-.42,2.35-.59,4.65-.59,6.16-1.23-1.61-2.58-3.93-3.92-7.61.17,3.47.91,6.73,2.04,9.85l-3.44-4.01v-12.5ZM47.57,140.44c-.9,14.44,12.7,32.29,32.6,37.02l-1.22,1.02c-2.32-.1-6.41.58-14.77-2.36-2.12-1.27-10.3-6.92-17.82-22.71.6,9.48,2.64,14.23,3.71,16.13-2.07-1.15-4.27-2.45-6.64-3.92-2.66-11.01-.24-19.28,4.14-25.18ZM90.4,129.17c6.56,8.64,12.41,17.91,11.92,31.13,3.02-6.99,3.58-20.25-11.92-31.13ZM91.12,121.13c1.6,11.5,26.63,7.4,25.71,37.06,8.34-33.84-19.27-26.96-25.71-37.06ZM107.01,108.01c4.93,3.65,8.7,7.74,11.11,12.36,0,0-6.07-5.92-19.05-11.1,1.24-.03,2.45-.07,3.56-.17,1.17.45,4.26,1.73,7.97,4-2.14-2.09-4.55-3.62-5.76-4.31.87-.18,1.61-.43,2.17-.78ZM95.26,103.59c4.82,2.42,11.42,1.91,11.42,1.91,0,0-7.73,4.97-18.34.38.86-.23,2.74-.16,6.92-2.3ZM88.39,98.62c2.88,1.41,3.43,1.65,7.38,2.4-3.69,1.66-8.52,2.05-12.93.16,3.91.41,8.21-.47,8.21-.47,0,0-1.42-.76-2.66-2.09ZM117.4,98.29s-7.43,6.15-18.75,3.83c.8-.4,2.65-.72,6.31-3.66,5.31.92,12.44-.17,12.44-.17ZM95.38,95.6c3.25.76,5.46,1.2,9.2.83-3.18,2.88-8.28,3.65-13.02,2.74,3.89-.53,7.4-1.7,7.4-1.7,0,0-2.19-.59-3.59-1.86ZM100.54,90.81c3.63.52,7.2.93,11.27.28-3.24,3.1-9.12,4.16-14.39,3.61,4.23-.97,6.71-1.98,6.71-1.98,0,0-2.14-.6-3.59-1.91ZM125.83,89.54s-8.38,9.4-19.85,6.5c.79-.4,3.89-1.27,6.49-3.74,6.42.56,13.36-2.76,13.36-2.76ZM118.65,83.4c-3,4.11-9.67,6.54-15.43,6.67,4.4-1.76,7.42-3.63,7.42-3.63,0,0-2.74-.36-4.5-1.69,3.99.08,8.24,0,12.51-1.35ZM56.28,79.55s-.54.91-.23,1.15c.31.24.51,0,.36-.3-.15-.29-.13-.89-.13-.85ZM134.33,79.52s-7.72,11.19-19.88,10.63c.68-.57,3.07-2.17,5.05-5.16,7.36-.88,14.84-5.47,14.84-5.47ZM63.02,78.33s-2.47,2.71-4.92,2.71c.91-.97,1.78-1.79,3.23-2.63l1.69-.08ZM57.52,77.05s.16.89-.12,1.43c1.73-.8,3.18-1.15,4.57-.9-3.76,2.12-5.72,4.55-6.47,7.49-1.01-3.33.18-5.95,2.02-8.02ZM97.96,73.02c.75,0,1.5.07,2.2.19-.29.57-1.02,1.83-1.36,2.42-1.09.36-2.22.9-3.37,1.86.59-2.1,2.79-2.88,2.79-2.88,0,0-.39-.65-4.69-.94,1.08-.41,2.75-.66,4.43-.64ZM125.75,72.54c-3,4.11-6.72,9.61-16.52,10.9,5.17-2.23,7.93-5.38,7.93-5.38,0,0-2.39.47-4.79-.3,4.8-.35,11-3.81,13.39-5.22ZM78.64,68.35c1.27.29,5.24,2.64,6.52,4.15-1.67-.25-3.33-.39-5-.24l-.68-.8c.92-.22,1.33-.21,2.42-.22,0,0-2.1-1.2-4.27-1.76,0,0,.59-.81.99-1.13ZM141.73,66.07s-8.41,15.64-20.5,16.03c.9-1.04,3.37-2.82,6.43-8.7,8.34-1.76,14.06-7.33,14.06-7.33ZM92.74,65.67c3.68.05,5.17.99,8.02,2.63-3.15.26-6.28,1.74-8.04,2.71,1.29-1.82,3.12-3.28,3.12-3.28,0,0-.45-1.2-4.82-2.02.62-.03,1.2-.04,1.72-.03ZM128.73,63.41c-2.6,4.37-7.41,9.35-14.84,12.01,4.61-3.15,7.18-6.31,7.18-6.31,0,0-3.43.74-5.73.39,3.46-.82,10.56-4.47,13.39-6.09ZM101.9,62.84c1.33-.01,2.6.12,3.88.48-.36.53-.96,1.78-1.38,2.32-1.13.22-1.79.77-2.32,1.25-.02-.91,1.4-2.05,1.4-2.05,0,0-.69-1.26-4.06-1.82.85-.1,1.67-.17,2.46-.18ZM89.87,57.88c4,.03,7.83.63,11.23,2.65-3.15.26-6.28.5-10.57,2.17,1.29-1.82,3.1-2.4,3.1-2.4,0,0-.63-1.46-6.55-2.36.94-.04,1.87-.07,2.79-.06ZM63.28,55.78c-1.46,2.26-.79,6.3-.11,7.01,0,0,2.49-3.66,3.86-3.43,1.4.24-3.41,5.97-4.36,6.79-.85-.65-1.61-1.41-2.87-1.55.2.86.22,1.63.08,2.08-1.23,3.05-3.5,5.8-3.69,9.15-2.2,3.86-5.29,10.25,1.18,13.22-.43-1.42-.84-3.73,1.42-6.34.98-.02,2.53-.85,2.53-.85.83.86,1.64,1.74,2.37,2.83,1.15,2.16,1.77,4.53,2.24,6.96-17.39,11.8-5.21,32.1,11.47,39.4-.91-1.71-1.83-2.61-2.28-5.18,0,0,9.07,8.38,13.73,14.07,4.74,5.79,4.95,11.5,2.58,13.77-2.37,2.27-11.62,6.66-20.5,4-9.32-2.79-6.59-10.86-6.59-10.86-6.67.88-6.36,10.94-6.38,14.13-12.37-14.66-7.39-22.51-2.22-25.06-12.92.42-14.2,10.13-15.68,13.92-3.83-3.94-5.09-8.06-6.05-12.2v-71.2s11.8-8.41,29.26-10.68ZM72.33,55.58c1.09,2.63-.86,6.63-.86,6.63-.17.14-.34.28-.51.41.51-1.54.92-3.53.78-5.18.38-.68.51-1.28.59-1.86ZM131.38,54.55c-2.6,4.37-7.04,9.39-13.68,12.09,4.17-3.4,5.33-5.85,5.33-5.85,0,0-2.24.8-4.31.08,3.46-.81,9.83-4.69,12.66-6.31ZM145.31,53.26s-5.95,14.92-17.71,17.35c.75-1.16,1.9-3.59,2.78-6.37,8.39-3.91,14.93-10.98,14.93-10.98ZM83.34,50.47c-.69,2.48-2.09,5.26-3.41,6.33l.4-1.99c-1.91,2.63-7.25,5.86-7.25,5.86,0,0,.21-.92.35-2.04,1.17-.37,4.95-3.17,9.91-8.16ZM132.49,46.49c-2.22,4.33-5.93,8.87-11.99,11.76,3.74-3.47,4.99-5.68,4.99-5.68,0,0-1.82.93-3.78.33,3.19-.94,8.22-4.72,10.79-6.41ZM148.66,39.69s-2.3,13.83-17.61,20.73c1.39-3.16,1.93-4.08,2.16-6.65,8.07-4.53,15.45-14.08,15.45-14.08ZM150.71,25.14c-1.44,4.77-3.94,15.43-17.13,24.71,1.39-3.15,2.12-5.98,2.34-8.55,5.72-4.62,10.53-10.13,14.79-16.16ZM151.08,18.23c-8.68,17.4-26.68,29.4-32.45,32.64-7.09,24.72-19.4,45.4-36.18,47.19-3.53,1.99-7.23,10.8-4.08,15.58l1.1-3.24c12.92.6,23.09,9.91,33.36,18.21-2.47-6-7.77-12.04-16.82-17.49,6.48,1.53,12.46,4.81,19.08,10.87,5.91,8.31,12.78,19.92,11.77,34.13-.92.92-1.83,1.81-2.72,2.66.62-3.63,1.16-11.46-3.59-18.65,2.63,14.28-1.6,22.18-3.75,25.13-.98.79-1.95,1.53-2.91,2.24.43-1.67,1.3-5.74.54-8.65-.39,4.53-2.65,9.16-3.44,10.67-1.14.75-2.27,1.45-3.4,2.1,1.62-3.65,5.14-13.73,1.06-25.98,1.84,17.11-7.08,27.41-9.38,29.76-1.69.58-3.39,1.06-5.13,1.44,1.35-2.48,4.82-9.39,4.39-14.49-2.84,6.77-7.87,13.41-9.37,15.32-1.91.23-3.87.35-5.91.4,0,0,17.95-15.72,12.91-31.29-5.2-16.07-16.86-17.09-23.92-27.64-.43,1.84-.41,3.7.8,5.62-14.28-8.6-16.33-21.83-8.17-28.27-1.09,2.34-1.24,6.98-.23,7.88.3-3.64,1.14-6.9,2.51-9.12.29.94.23,2.98.09,3.66,0,0,1.71-.72,3.64-4.62.59,5.49-.03,8.28-.03,8.28,3.12-4.1,1.94-10.95-.15-16.61-.11,3.18-.5,6.25-2.08,8.13.2-3.87-1.35-8.39-3.74-12.87,0,0,2.64.31,4.39,4.74.17-1.44-.34-3.47-.76-3.87,1.83.42,3.7,1.8,5.58,3.42-2.83-4.6-6.03-5.64-10.59-6.34,0,0,.2-.6,1.02-.97-.58-.16-1.58-.43-1.94-.49l1.22-.51c-1.37-.68-3.1-.35-3.41-.74,0,0,1.44-.66,1.75-1.17-.47.2-1.55.28-1.53.17.39-1.68,1.11-2.82,1.93-3.46.44.92.33,1.89.27,2.85.52-1.03.85-1.9.68-3.38.51-.19,1.07-.27,1.64-.25-1.55-.49-2.45-.2-3.52.71-1.45,1.23-1.26,3.44-1.93,3.54-.67.1-.62-.58-.62-.58-.12.41-.39.98.67,1.43-.42.29-.7.26-1.28-.03.07.69.39.72,1.13.71,0,0-1.62.62-1.72-.18-.52-4.24,2.32-4.8,3.42-8.95.51.83.44,1.61.51,2.37.32-.49.33-.92.36-1.44,0,0,6.31-5.89,7.08-10.05.47-2.57-.7-2.6-1.33-2.78-1.28-.37-2.97,1.57-2.97,1.57-.02-1.39,3.1-6.15,6.53-3.17.14.12.26.25.37.39-.02.45-.18,1.07-.31,1.52-.36-1.19-1.15-1.99-2.64-1.96,4.32,2.12.51,8.13-1.39,10.87-1.38,1.05-2.72,2.19-3.9,3.72,4.31-3.29,7.63-4.35,10.35-6.24,3.93-2.74,6.64-5.34,12.49-11-1.31,2.95-3.56,7.88-9.01,12.2,1.42-1.93,2.47-3.87,3.63-5.8-4.13,4.23-9.44,8.34-14.26,11.54,1.71-.23,3.56-.75,5.36-1.18-1.48,1.36-3.09,2.61-4.78,3.8,3.69-1.72,6.73-4.14,9.7-6.62,0,0,2.01-.58,4.39-1.59-1.97,1.8-9.13,8.38-12.44,10.44,2.84-.54,4.45-1.99,6.44-3.43,1.78,1.13,3.38,2.15,4.1,3.39-1-.19-1.81-.33-2.83-.15,3.16,2.62,5.97,6.82,8.52,11.5.1-1.91-3.08-8.62-3.61-9.14l2.7,1.9c-.53-2.04-2.14-3.79-2.85-4.69,3.77-.51,9.95,5.82,11.73,6.82,0,0-3.16-.35-4.5.41,1.75.26,3.25,1.57,4.05,2.84-3.45,2.17-6.9,4.33-11.96,5.69,0,0-5.86,9.04-9.2,14.35,3.31-1.43,14.59-13.21,14.52-13.37,12.05-3.07,26.77-32.24,26.6-43.32,6.91-2.98,28.25-18.54,38.32-29.03ZM157.15,6.04c-13.34,14.94-28.51,28.28-46.25,39.38l-1.03,5.52c-4.17-.83-8.33-1.81-12.51-2.53-3.91-.77-8.06-1.34-12.43-1.58-5.1-4.29-8.31-6.24-13.04-6.98,1.56,2.18,3.31,4.26,4.31,6.5-4.81-4.36-10.92-7.59-16.35-8.58,1.97,2.55,4.27,5.06,5.62,7.7-5.53-4.08-12.47-9.79-24.95-13.38,6.15,5.08,12.04,11.04,16.8,17.53-17.85,4.61-29.26,13.03-29.26,13.03v43.26l-.03,2.48h.03v47.83c10.25,16.35,29.66,28.44,51.92,28.44s41.66-12.09,51.92-28.44v-68.17l1.26-1.47-1.26.34v-.88c5.23-4.31,9.01-9.14,12.44-13.82l-2.39,1.34c3.65-5.22,6-10.91,7.81-16.32l-2.52,1.91c2.24-5.05,4.49-10.11,5.38-15.03l-2.83,1.98c2.26-4.95,4.34-9.96,5.24-15.31l-3.12,2.84c1.33-5.66,3.31-11.33,3.84-16.79l-2.15,2.72c1.51-4.18,2.82-9.31,3.55-13.49Z"/>
    </g>
    <path class="cls-12" d="M143.91,156.33c-1.32-.03-2.64-.07-3.96-.1-4.66-.11-9.32-.21-13.99-.29-1.32-.02-2.64-.05-3.96-.07-5.26-.09-10.52-.16-15.77-.21-.73,0-1.45-.01-2.18-.02-2.13-.02-4.27-.04-6.4-.05,0-2.62,0-5.23-.01-7.85h-21.91c0,2.57,0,5.14,0,7.71-.45-.27-.91-.53-1.36-.8,0,.3,0,.6,0,.9-4.35.01-8.71.04-13.06.08-1.32.01-2.64.02-3.96.04-5.99.06-11.97.14-17.95.25-1.94.03-3.89.07-5.83.11-2.72.05-5.44.11-8.15.18,0-2.82.01-5.64.02-8.46H3.52c0,2.99,0,5.97,0,8.96-.45-.3-.9-.59-1.36-.89v15.43c.45.29.9.59,1.35.88,0,9.24,0,18.48,0,27.72,4-.75,8.02-1.44,12.04-2.08,1.94-.31,3.87-.6,5.81-.88,5.96-.86,11.94-1.59,17.93-2.19,1.32-.13,2.64-.26,3.96-.38,5.99-.55,11.99-.97,17.99-1.26.31-.01.61-.03.92-.04,4.05-.19,8.11-.32,12.16-.39.46,0,.92-.02,1.39-.02,4.06-.06,8.11-.06,12.17,0,2.08.03,4.17.07,6.25.13,3.33.09,6.67.23,10,.4.73.04,1.46.08,2.19.12,5.27.3,10.54.7,15.8,1.2,1.32.13,2.64.26,3.96.39,5.99.62,11.96,1.37,17.92,2.25.3.04.61.09.91.13,4.02.6,8.04,1.26,12.05,1.98,0-10.19-.02-20.39-.02-30.58,1.64.12,3.27.24,4.9.37v-12.12c-5.97-.2-11.95-.37-17.93-.52Z"/>
    <g>
      <g>
        <path class="cls-19" d="M12.24,151.01c-1.78.02-3.56.04-5.34.06,0,2.19,0,4.38,0,6.57,0,1.77,0,3.53,0,5.3-.45-.28-.9-.57-1.36-.85,0,.19,0,.39,0,.58,0,1.99,0,3.97,0,5.96,0,.21,0,.42,0,.64.11.07.23.15.34.22.34.22.68.44,1.01.66.47.29.93.58,1.4.87-.47.04-.93.07-1.4.11,0,8.26-.01,16.51-.02,24.77,1.77-.3,3.54-.58,5.31-.86.01-7.19.02-14.37.03-21.56,3.25,2.01,6.5,3.96,9.76,5.88,0-1.99,0-3.99.01-5.98,0-.29,0-.59,0-.88,0-1.37,0-2.73,0-4.1,0-3.74.02-7.48.03-11.21,0-2.09,0-4.17.01-6.26-1.78.02-3.56.03-5.34.05-1.48.01-2.97.03-4.45.05ZM16.66,169.2c-.23-.15-.47-.29-.7-.44-1.24-.78-2.49-1.57-3.73-2.36,0-2.98,0-5.96.01-8.94,1.48-.05,2.96-.09,4.45-.14,0,3.8-.01,7.6-.02,11.39,0,.16,0,.32,0,.49Z"/>
        <path class="cls-19" d="M34.55,181.16c0,1.29,0,2.58-.01,3.87,0,.17,0,.34,0,.51,0,.16,0,.31,0,.47,0,.04,0,.08,0,.13,0,.31,0,.62,0,.93,0,.07,0,.14,0,.21-1.48.14-2.97.28-4.45.44.02-6.6.04-13.19.06-19.79,0-2.91.02-5.82.02-8.73-1.78.05-3.56.11-5.34.16,0,2.95-.02,5.91-.02,8.86,0,.6,0,1.21,0,1.81,0,1.25,0,2.5,0,3.75,0,.25,0,.49,0,.74,0,1,0,2,0,3.01,0,3.59-.02,7.17-.03,10.76,0,1.66,0,3.31-.01,4.97,1.78-.23,3.55-.44,5.33-.64,1.48-.17,2.97-.33,4.45-.49,1.78-.19,3.56-.36,5.34-.53,0-1.09,0-2.18,0-3.27,0-.5,0-1.01,0-1.51,0-.38,0-.76,0-1.13,0-.87,0-1.74,0-2.6-1.78-.78-3.56-1.55-5.34-2.34,0,.14,0,.28,0,.42Z"/>
        <path class="cls-19" d="M48.11,158.76c-1.78.03-3.56.07-5.34.11,0,1.59,0,3.17-.01,4.76,0,1.24,0,2.49-.01,3.73,0,.04,0,.07,0,.11,0,.14,0,.28,0,.42,0,1.43,0,2.87-.01,4.3,0,.15,0,.31,0,.46-.02,6.23-.04,12.46-.05,18.7,1.78-.15,3.57-.3,5.35-.43.01-5.26.03-10.52.04-15.78,1.48.69,2.97,1.37,4.45,2.06.52.24,1.03.47,1.55.71.03.01.06.02.09.04-.55.02-1.1.05-1.64.07-.01,4.2-.02,8.4-.03,12.59,1.79-.12,3.57-.22,5.36-.32,0-3.56.02-7.11.02-10.67,0-.14,0-.27,0-.41,0-1.4,0-2.8,0-4.19,0-.15,0-.3,0-.45,0-2.56.01-5.12.02-7.68,0-1.21,0-2.43,0-3.64,0-1.55,0-3.09,0-4.64-1.78.02-3.56.05-5.35.08-1.48.02-2.97.05-4.45.08ZM52.53,172.05c-1.48-.7-2.97-1.4-4.45-2.1,0-.93,0-1.86,0-2.8,0-1.23,0-2.46,0-3.69,1.49-.04,2.97-.08,4.46-.11,0,1.22,0,2.44,0,3.66,0,1.68,0,3.35-.01,5.03Z"/>
        <path class="cls-19" d="M70.52,166.66c0,.91,0,1.82,0,2.72-.75.39-1.5.77-2.26,1.16-.74-.36-1.47-.73-2.21-1.09,0-.91,0-1.82,0-2.73,0-2.74,0-5.47.01-8.21-1.78.02-3.56.03-5.35.06,0,2.75-.01,5.5-.02,8.25,0,.04,0,.07,0,.11,0,.14,0,.27,0,.41,0,1.18,0,2.35,0,3.53,0,.22,0,.43,0,.65,0,.15,0,.3,0,.45.09.05.19.1.28.15.75.35,1.5.69,2.25,1.04,1.33.63,2.66,1.26,3.99,1.89-.55.01-1.1.02-1.64.04,0,4.15-.01,8.29-.02,12.44,0,.81,0,1.62,0,2.42,1.79-.06,3.57-.12,5.36-.16,0-.8,0-1.61,0-2.41,0-4.4,0-8.8.01-13.2.8-.4,1.6-.8,2.4-1.2.85-.42,1.69-.85,2.54-1.27,0-.15,0-.29,0-.44,0-.12,0-.24,0-.36v-3.77c0-.13,0-.27,0-.4,0-.04,0-.07,0-.11,0-2.72,0-5.44,0-8.16-1.78,0-3.57.02-5.35.03,0,2.73,0,5.46,0,8.18Z"/>
        <path class="cls-19" d="M84.46,150.64c-1.78,0-3.56,0-5.34,0,0,1.91,0,3.81,0,5.72,0,1.54,0,3.08,0,4.61-.45-.27-.91-.53-1.36-.8,0,.17,0,.33,0,.5,0,1.72,0,3.44,0,5.17,0,.18,0,.37,0,.55.11.07.23.14.34.21.34.21.68.42,1.02.63.47.28.94.57,1.41.85-.47,0-.94,0-1.41,0,0,7.19,0,14.37,0,21.56,1.79-.01,3.58-.01,5.36,0,0-6.38,0-12.77,0-19.15,1.82,1.13,3.63,2.26,5.45,3.4,0-2.08,0-4.15,0-6.23-.56-.35-1.12-.7-1.69-1.05-1.25-.78-2.51-1.56-3.76-2.34,0-2.64,0-5.28,0-7.92,1.49,0,2.97,0,4.46,0,0,2.12,0,4.25,0,6.37,1.78,0,3.57.02,5.35.04,0-2.13,0-4.26,0-6.39,0-1.91,0-3.83,0-5.74-1.78,0-3.56,0-5.34,0-1.48,0-2.97,0-4.45,0Z"/>
        <path class="cls-19" d="M102.87,166.81c0-2.75-.01-5.5-.02-8.25-1.78-.02-3.56-.04-5.35-.05,0,2.74,0,5.47.01,8.21,0,.02,0,.04,0,.07-.05-.02-.09-.05-.14-.07-.41-.2-.81-.4-1.22-.6,0,.13,0,.27,0,.4,0,.06,0,.12,0,.17,0,1.33,0,2.65,0,3.98,0,.15,0,.3,0,.44.45.24.91.47,1.36.71,0,.01,0,.03,0,.04.55.28,1.1.56,1.64.84-.53-.01-1.06-.02-1.6-.03,0,2,0,4.01,0,6.01,0,2.14,0,4.28,0,6.42-.01,1.6-.03,3.2-.04,4.8,1.79.06,3.57.13,5.36.21,0-1.61,0-3.22,0-4.83,0-3.57-.01-7.14-.02-10.71.47.24.94.49,1.41.73,0-1.68,0-3.36-.01-5.04-.47-.24-.94-.48-1.41-.73,0-.91,0-1.83,0-2.74Z"/>
        <path class="cls-19" d="M112.79,158.7c-1.78-.03-3.56-.06-5.35-.08,0,1.55,0,3.1.01,4.65,0,1.21,0,2.43,0,3.64,0,.04,0,.07,0,.11-.08-.04-.15-.08-.23-.11-.38-.19-.76-.38-1.14-.57,0,.14,0,.27,0,.41,0,.05,0,.09,0,.14,0,1.35,0,2.71,0,4.06,0,.15,0,.3,0,.45.45.24.91.49,1.36.73.47.25.94.49,1.41.74-.47-.02-.94-.03-1.41-.05,0,4.3.02,8.59.03,12.89,0,1.55,0,3.1.01,4.65,1.79.1,3.57.21,5.36.33,1.49.1,2.97.21,4.46.33,1.78.14,3.57.29,5.35.45,0-1.09,0-2.18,0-3.26,0-.5,0-1,0-1.51,0-.38,0-.75,0-1.13,0-.87,0-1.73,0-2.6-1.78-1.04-3.57-2.05-5.36-3.05,0,.14,0,.28,0,.41,0,1.26,0,2.51.01,3.77,0,.17,0,.33,0,.5,0,.15,0,.3,0,.46,0,.04,0,.08,0,.12,0,.3,0,.61,0,.91,0,.07,0,.14,0,.21-1.49-.1-2.97-.2-4.46-.29,0-3.67-.02-7.34-.03-11.02,1.82,1,3.63,2.01,5.45,3.04,0-1.72,0-3.43-.01-5.15-1.82-1.01-3.63-2.01-5.45-2.99,0-.94,0-1.88,0-2.82,0-1.22,0-2.45,0-3.67,1.49.04,2.97.08,4.46.12,0,1.23,0,2.47.01,3.7,0,.52,0,1.04,0,1.56,1.78.07,3.56.14,5.35.22,0-.53,0-1.05,0-1.58,0-1.25,0-2.49-.01-3.74,0-1.59,0-3.18-.01-4.77-1.78-.04-3.56-.08-5.34-.11-1.48-.03-2.97-.06-4.45-.08Z"/>
        <path class="cls-19" d="M130.75,159.11c-1.78-.05-3.56-.1-5.34-.14,0,1.6,0,3.2.01,4.8v3.76s.01.07.01.11c0,.14,0,.28,0,.42,0,1.45,0,2.89.01,4.34,0,.04,0,.08,0,.13,0,.11,0,.22,0,.34,3.27,1.88,6.54,3.81,9.81,5.81.52.31,1.03.63,1.55.95.03.02.06.03.09.05-.55-.05-1.09-.09-1.64-.14,0,2.77.02,5.55.02,8.32-1.48-.16-2.96-.3-4.45-.45,0-2.71-.02-5.43-.02-8.14-1.78-.14-3.56-.26-5.34-.39,0,2.68.02,5.36.02,8.04,0,1.6,0,3.2.01,4.8,1.78.17,3.56.35,5.34.54,1.48.16,2.97.33,4.45.5,1.78.21,3.56.43,5.33.66,0-1.66,0-3.32-.01-4.99,0-2.16-.01-4.31-.02-6.47,0-.15,0-.29,0-.44,0-1.5,0-3-.01-4.5,0-.1,0-.2,0-.31,0-.06,0-.12,0-.18-3.26-2.03-6.53-3.99-9.8-5.89,0-.96,0-1.92,0-2.88,0-1.27,0-2.54-.01-3.81,1.48.06,2.97.12,4.45.18,0,1.28,0,2.57.01,3.85,0,.57,0,1.14,0,1.71,1.78.1,3.56.21,5.34.32,0-.58,0-1.16,0-1.73,0-1.3,0-2.6,0-3.91,0-1.66,0-3.32-.01-4.99-1.78-.06-3.56-.12-5.34-.17-1.48-.04-2.97-.09-4.45-.13Z"/>
        <path class="cls-19" d="M153.55,159.88c-1.78-.07-3.56-.14-5.34-.21-1.62-.06-3.25-.12-4.87-.18,0,1.68,0,3.35.01,5.03,1.62.08,3.24.16,4.87.25,0,1.33,0,2.67,0,4,.02,8.57.03,17.14.05,25.72,1.77.26,3.54.53,5.31.81-.01-8.72-.02-17.44-.03-26.16,0-1.36,0-2.71,0-4.07,1.64.09,3.27.19,4.91.29,0-1.76,0-3.52,0-5.28-1.64-.07-3.27-.14-4.91-.21Z"/>
      </g>
      <path class="cls-6" d="M7.46,195.2c0-7.85.01-15.7.02-23.56.89-.07,1.78-.15,2.67-.22-.82-.5-1.63-1-2.45-1.51,2.69-.2,5.38-.4,8.07-.58.5.31.99.62,1.49.93,0-.34,0-.68,0-1.03,1.38-.09,2.77-.18,4.15-.27,0,3.11-.01,6.23-.02,9.34-3.25-1.93-6.5-3.89-9.76-5.92-.01,7.38-.02,14.77-.03,22.15-1.38.21-2.76.43-4.13.66Z"/>
      <path class="cls-4" d="M25.33,192.63c.02-7.97.04-15.93.06-23.9,1.38-.08,2.77-.16,4.15-.23-.02,6.61-.04,13.21-.05,19.82,1.88-.2,3.76-.38,5.63-.56,0-2.05.01-4.1.02-6.15,1.38.61,2.77,1.21,4.15,1.81,0,2.56-.01,5.13-.02,7.69-4.65.43-9.3.94-13.94,1.51Z"/>
      <path class="cls-10" d="M53.08,190.04l.03-11.55c1.18-.05,2.37-.11,3.55-.15-.78-.31-1.55-.62-2.33-.92-2.29-1.06-4.57-2.11-6.86-3.17-.01,5.39-.03,10.79-.04,16.18-1.39.1-2.78.22-4.16.33.02-7.63.04-15.27.06-22.9,1.39-.05,2.77-.11,4.16-.16,0,.86,0,1.72,0,2.58,1.88.89,3.76,1.77,5.64,2.65,0-1.8,0-3.61.01-5.41,1.39-.04,2.77-.08,4.16-.11-.02,7.46-.03,14.92-.05,22.39-1.39.07-2.78.16-4.17.24Z"/>
      <path class="cls-11" d="M66.15,189.4c0-4.61.01-9.22.02-13.84,1.09-.03,2.18-.05,3.27-.07-1.97-.94-3.94-1.87-5.91-2.8-.75-.34-1.49-.69-2.24-1.03,0-1.45,0-2.9,0-4.35,1.39-.03,2.78-.06,4.16-.08,0,.84,0,1.67,0,2.51.93.46,1.86.92,2.8,1.38.95-.49,1.9-.98,2.85-1.47,0-.84,0-1.67,0-2.51,1.39-.02,2.78-.03,4.16-.04,0,1.43,0,2.86,0,4.28-.75.37-1.49.75-2.24,1.12-.9.45-1.8.9-2.7,1.35,0,5.13-.01,10.27-.02,15.4-1.39.04-2.78.08-4.17.12Z"/>
      <path class="cls-9" d="M79.7,189.14c0-6.85,0-13.7,0-20.55.89,0,1.79,0,2.68,0-.82-.5-1.64-.99-2.46-1.49,2.7,0,5.41,0,8.11.02.43.27.86.53,1.28.8,0,1.66,0,3.32,0,4.97-1.82-1.14-3.63-2.27-5.45-3.39,0,6.55,0,13.09,0,19.64-1.39,0-2.78,0-4.17,0Z"/>
      <path class="cls-7" d="M98.15,189.41c.01-1.43.02-2.86.04-4.29,0-3.98-.01-7.95-.02-11.93,1.08.02,2.16.05,3.24.08-1.1-.57-2.21-1.14-3.31-1.71-.09-.06-.18-.12-.27-.18-.36-.19-.71-.37-1.07-.56,0-1.21,0-2.41,0-3.62.16,0,.32,0,.47,0,.3.14.59.29.89.43,0-.14,0-.28,0-.42,1.39.02,2.78.05,4.16.08v2.53c.47.24.94.48,1.41.72,0,1.28,0,2.57,0,3.85-.47-.24-.94-.49-1.41-.73,0,5.3.02,10.6.03,15.89-1.39-.06-2.78-.12-4.17-.16Z"/>
      <path class="cls-8" d="M108.11,189.87c-.01-5.51-.03-11.01-.04-16.52,1.02.04,2.04.07,3.07.11-1.12-.6-2.25-1.19-3.37-1.78-.35-.19-.71-.38-1.06-.57,0-1.23,0-2.47,0-3.7.13,0,.26,0,.39,0,.32.16.65.33.97.49,0-.16,0-.31,0-.47,1.39.04,2.77.08,4.16.12,0,.87,0,1.73,0,2.6,1.82.98,3.63,1.97,5.45,2.98,0,1.31,0,2.62.01,3.93-1.82-1.02-3.63-2.03-5.45-3.02.01,4.14.02,8.28.03,12.43,1.88.11,3.77.24,5.65.37,0-2-.01-4-.02-6.01,1.39.78,2.78,1.58,4.17,2.38,0,2.55.01,5.1.02,7.65-4.66-.41-9.32-.74-13.98-1.01Z"/>
      <path class="cls-3" d="M126.09,191.25c-.01-3.93-.02-7.86-.03-11.79,1.39.1,2.77.2,4.16.31,0,2.71.02,5.42.02,8.13,1.88.18,3.76.37,5.63.57,0-2.78-.02-5.55-.02-8.33,1.18.1,2.36.21,3.54.31-.78-.43-1.55-.86-2.33-1.29-.51-.31-1.01-.62-1.52-.93-3.17-1.94-6.34-3.82-9.51-5.64,0-1.5,0-3-.01-4.5,1.39.06,2.77.13,4.16.2,0,.88,0,1.77,0,2.65,3.27,1.9,6.54,3.86,9.8,5.88.01,5.33.03,10.65.04,15.98-4.64-.59-9.29-1.11-13.94-1.55Z"/>
      <path class="cls-2" d="M148.87,194.01c-.01-8.21-.03-16.42-.04-24.63,1.38.09,2.77.19,4.15.29.01,8.32.02,16.64.03,24.96-1.38-.22-2.76-.42-4.14-.63Z"/>
    </g>
  </g>
</svg>