<svg id="fi_7714630" enable-background="new 0 0 512 512" height="512" viewBox="0 0 512 512" width="512" xmlns="http://www.w3.org/2000/svg"><g><path d="m.21 338.593c6.645 14.304 26.595 19.144 39.4 12.995 19.999-9.603 26.663-6.973 46.243-.098l298.182 104.705c10.896 3.826 20.768 5.602 28.229 21.139 7.72 16.075 27.01 22.849 43.085 15.129s19.474-25.885 11.754-41.96c12.801-6.148 19.702-25.843 13.892-40.986-9.764-9.014-24.407-11.676-37.114-5.574-19.999 9.604-28.314 8.624-47.894 1.749l-280.559-98.517c-19.58-6.876-26.682-11.31-36.286-31.309-7.984-16.625-27.932-23.629-44.557-15.646-16.625 7.984-23.629 27.933-15.646 44.557-13.143 6.311-20.265 20.101-18.729 33.816z" fill="#f3f0f3"></path><path d="m.208 338.593c.406 3.632 1.412 7.26 3.084 10.741 7.984 16.625 27.933 23.63 44.557 15.646 19.999-9.604 28.314-8.624 47.894-1.749l280.559 98.517c19.58 6.876 26.682 11.31 36.286 31.309 7.984 16.625 27.932 23.629 44.557 15.646 16.625-7.984 23.629-27.933 15.646-44.557 16.625-7.984 23.629-27.932 15.646-44.557-1.881-3.918-4.433-7.293-7.443-10.072 1.245 14.018-6.781 28.395-18.505 34.025 7.07 14.721 3.958 31.356-10.764 38.426s-32.387.867-39.457-13.855c-6.833-14.229-17.748-16.955-28.644-20.781l-298.182-104.706c-19.58-6.876-27.895-7.855-47.894 1.749-12.805 6.15-27.577 3.399-37.34-5.782z" fill="#cbc4cc"></path><path d="m39.199 464.145c-2.816 5.863-3.76 12.139-3.082 18.159 1.452 6.665 10.399 14.57 13.576 16.096 16.625 7.983 36.574.978 44.557-15.646 9.604-19.999 16.706-24.433 36.286-31.309l280.559-98.517c19.58-6.875 27.895-7.855 47.894 1.749 16.625 7.983 36.574.979 44.557-15.646 2.819-5.87 3.984-20.81-2.07-28.482-2.434-2.288-5.253-4.25-8.425-5.773 7.983-16.625.978-36.573-15.646-44.557-16.625-7.983-36.574-.979-44.557 15.646-9.604 19.999-16.706 24.434-36.286 31.309l-280.559 98.517c-19.58 6.876-27.895 7.855-47.894-1.749-16.625-7.983-36.573-.978-44.557 15.646-7.984 16.625-.979 36.573 15.647 44.557z" fill="#f3f0f3"></path><path d="m44.542 488.098c-3.178-1.526-5.989-3.501-8.426-5.794 1.243 11.048 7.966 21.231 18.727 26.398 16.625 7.983 36.574.979 44.557-15.646 9.604-19.999 16.706-24.434 36.286-31.309l280.559-98.517c19.58-6.875 27.895-7.855 47.894 1.749 16.625 7.983 36.574.979 44.557-15.646 6.46-13.453 3.103-29.08-7.221-38.784.682 6.026-.262 12.31-3.081 18.18-7.984 16.625-27.932 23.63-44.557 15.646-19.999-9.604-28.314-8.624-47.894-1.749l-280.559 98.517c-19.58 6.876-26.682 11.31-36.286 31.309-7.983 16.624-27.932 23.629-44.556 15.646z" fill="#cbc4cc"></path><path d="m106.427 131.542v84.361c0 30.781 10.153 50.634 42.777 50.634 17.582 0 19.46 39.147.001 39.147v34.192c0 11.606 5.601 24.067 15.479 35.373 27.423 21.819 56.823 27.811 91.312 27.811 23.23 0 55.637-9.704 75.391-27.888v-69.419c0-25.136.082-39.217 31.399-39.217 21.635 0 32.475-12.985 32.475-30.031 0-42.927.001-104.964.001-104.964 0-34.444-11.46-69.406-32.982-96.298-27.107-22.843-64.713-35.243-106.285-35.243-82.604.001-149.568 48.937-149.568 131.542z" fill="#f3f0f3"></path><path d="m252.556 228.721c-16.11 14.396-22.979 21.359-24.727 28.071-.475 3.729 4.554 12.086 12.002 12.086 5.487 0 10.3-2.845 13.073-7.133 2.773 4.288 7.587 7.133 13.073 7.133 7.657 0 18.658-8.357 12.22-22.089-3.959-4.592-9.988-10.226-18.764-18.068-1.956-1.748-4.921-1.748-6.877 0z" fill="#7a6d79"></path><path d="m236.741 259.607c-3.318 0-6.386-1.046-8.912-2.814-.291 1.117-.444 2.228-.471 3.365-.171 7.264 4.756 13.852 11.832 15.498 6.985 1.624 13.418-1.461 16.805-6.699 3.416 5.282 9.929 8.375 16.982 6.656 6.964-1.697 11.779-8.198 11.656-15.365-.073-4.281-1.887-8.182-6.436-13.459-1.301 7.284-7.653 12.817-15.311 12.817-5.487 0-10.3-2.845-13.073-7.133-2.772 4.288-7.586 7.133-13.072 7.134z" fill="#685e68"></path><path d="m293.248 222.899c19.869 8.418 46.834 7.411 59.667-1.873 11.106-8.035 13.884-30.423 6.793-39.04-6.852-8.327-18.842-8.327-30.896-8.327-12.693 0-47.846 10.287-47.846 10.287-1.788 15.411 2.904 30.201 12.282 38.953z" fill="#7a6d79"></path><path d="m293.248 222.899c.956.892 1.958 1.726 3.01 2.487 17.712 12.815 46.156 13.605 63.868.791s20.579-44.478 4.864-55.848c-9.643-6.977-15.414-6.915-36.242-6.972-15.512-.042-31.514-.02-38.149-.007-1.986.004-3.807 1.141-4.643 2.943-2.68 5.772-4.306 11.758-4.99 17.653 14.01-.012 35.153-.021 47.846.014 7.04.02 16.262.035 22.11 4.266 4.12 2.981 5.969 18.81-6.249 27.649-12.832 9.284-33.999 11.421-51.425 7.024z" fill="#685e68"></path><path d="m138.045 183.945c-3.754 13.428.626 31.131 11.953 40.756 18.14 6.027 47.311 4.173 60.003-6.403 12.333-10.277 13.796-31.174 6.325-44.64z" fill="#7a6d79"></path><path d="m149.998 224.702c.604.513 1.221 1.01 1.864 1.475 17.712 12.814 46.156 12.024 63.868-.791 15.31-11.077 20.71-36.685 10.306-59.086-.838-1.804-2.659-2.946-4.648-2.95-6.636-.013-22.637-.035-38.148.007-20.828.057-26.599-.005-36.242 6.972-4.441 3.212-7.395 8.047-8.953 13.617 24.309-.03 70.039.014 70.039.014 5.343 12.413-1.726 26.724-7.807 31.124-10.907 7.892-31.741 11.215-50.279 9.618z" fill="#685e68"></path><path d="m106.426 215.9v20.604c0 25.288 18.396 40.333 42.778 40.333l10.302 7.579-10.302 7.874v13.392c32.612 0 33.458 20.781 33.458 20.781s0-34.967 0-41.314c0-16.894-15.877-28.915-33.459-28.915-24.382 0-42.777-15.046-42.777-40.334z" fill="#cbc4cc"></path><path d="m164.684 375.247c18.404 21.064 51.668 38.113 91.312 38.113 60.922 0 106.791-40.257 106.791-73.486 0-7.722-.001-47.585-.001-47.585l-10.302-7.531 10.302-7.921c24.382 0 42.777-15.046 42.777-40.333 0-42.927.001-104.964.001-104.964-.001-41.032-16.529-73.752-43.284-96.298 14.97 27.896 22.68 61.854 22.68 96.298 0 0-.001 62.037-.001 104.964 0 11.551-8.779 19.729-22.173 19.729-31.318 0-52.003 24.383-52.003 49.519v56.973c0 8.028-4.625 15.408-11.948 18.698-16 7.19-34.731 11.334-53.142 11.334-34.489 0-59.443-4.647-81.009-17.51z" fill="#cbc4cc"></path><path d="m149.205 276.837v15.453c25.733 0 25.733 9.435 25.733 13.463v36.6c0 4.267 3.459 7.726 7.726 7.726s7.726-3.458 7.726-7.726v-2.5c6.265 2.732 13.444 4.97 21.213 6.709v12.064c0 4.267 3.459 7.726 7.726 7.726s7.726-3.458 7.726-7.726v-9.347c6.882.91 14.013 1.485 21.213 1.724v11.674c0 4.267 3.459 7.726 7.726 7.726s7.726-3.458 7.726-7.726v-11.674c7.199-.239 14.331-.814 21.213-1.724v9.347c0 4.267 3.459 7.726 7.726 7.726s7.726-3.458 7.726-7.726v-12.064c7.769-1.739 14.948-3.976 21.213-6.709v2.5c0 4.267 3.459 7.726 7.726 7.726s7.726-3.458 7.726-7.726v-36.6c0-4.028 0-13.463 25.733-13.463v-15.453c-11.409 0-20.197 1.675-26.869 5.121-9.366 4.838-14.317 13.067-14.317 23.795v16.833c-5.661 3.405-12.943 6.149-21.213 8.239v-12.603c0-4.267-3.459-7.726-7.726-7.726s-7.726 3.458-7.726 7.726v15.602c-6.814.974-13.967 1.591-21.213 1.846v-13.396c0-4.267-3.459-7.726-7.726-7.726s-7.726 3.458-7.726 7.726v13.396c-7.245-.255-14.399-.872-21.213-1.846v-15.602c0-4.267-3.459-7.726-7.726-7.726s-7.726 3.458-7.726 7.726v12.603c-8.27-2.089-15.552-4.834-21.213-8.239v-16.833c0-10.729-4.951-18.957-14.317-23.795-6.672-3.446-15.461-5.121-26.869-5.121z" fill="#b5adb6"></path></g></svg>